inDegrees=no
num_controls=7
num_derivatives=13
num_iterations=128
num_multipliers=7
num_parameters=0
num_slacks=7
num_states=26
objective=0.477040
objective_accelerations=0.044374
objective_balance=0.003654
objective_effort=0.040620
objective_height=0.382728
objective_ligament=0.005664
solver_duration=1765.828090
status=Solve_Succeeded
success=true
DataType=double
version=3
OpenSimVersion=4.5
endheader
time	/jointset/ground_pelvis/pelvis_tilt/value	/jointset/ground_pelvis/pelvis_tx/value	/jointset/ground_pelvis/pelvis_ty/value	/jointset/hip_l/hip_flexion_l/value	/jointset/hip_l/hip_adduction_l/value	/jointset/hip_l/hip_rotation_l/value	/jointset/back/lumbar_extension/value	/jointset/patellofemoral_l/patellar_flexion_l/value	/jointset/knee_l/knee_flexion_l/value	/jointset/knee_l/knee_adduction_l/value	/jointset/knee_l/knee_rotation_l/value	/jointset/ankle_l/ankle_angle_l/value	/jointset/subtalar_l/subtalar_angle_l/value	/jointset/ground_pelvis/pelvis_tilt/speed	/jointset/ground_pelvis/pelvis_tx/speed	/jointset/ground_pelvis/pelvis_ty/speed	/jointset/hip_l/hip_flexion_l/speed	/jointset/hip_l/hip_adduction_l/speed	/jointset/hip_l/hip_rotation_l/speed	/jointset/back/lumbar_extension/speed	/jointset/patellofemoral_l/patellar_flexion_l/speed	/jointset/knee_l/knee_flexion_l/speed	/jointset/knee_l/knee_adduction_l/speed	/jointset/knee_l/knee_rotation_l/speed	/jointset/ankle_l/ankle_angle_l/speed	/jointset/subtalar_l/subtalar_angle_l/speed	/forceset/tau_hip_flexion_l	/forceset/tau_hip_adduction_l	/forceset/tau_hip_rotation_l	/forceset/tau_knee_flexion_l	/forceset/tau_ankle_angle_l	/forceset/tau_subtalar_angle_l	/forceset/tau_lumbar_extension	lambda_cid13_p0	lambda_cid13_p1	lambda_cid13_p2	lambda_cid13_p3	lambda_cid13_p4	lambda_cid13_p5	lambda_cid14_p0	/jointset/ground_pelvis/pelvis_tilt/accel	/jointset/ground_pelvis/pelvis_tx/accel	/jointset/ground_pelvis/pelvis_ty/accel	/jointset/hip_l/hip_flexion_l/accel	/jointset/hip_l/hip_adduction_l/accel	/jointset/hip_l/hip_rotation_l/accel	/jointset/back/lumbar_extension/accel	/jointset/patellofemoral_l/patellar_flexion_l/accel	/jointset/knee_l/knee_flexion_l/accel	/jointset/knee_l/knee_adduction_l/accel	/jointset/knee_l/knee_rotation_l/accel	/jointset/ankle_l/ankle_angle_l/accel	/jointset/subtalar_l/subtalar_angle_l/accel	gamma_cid13_p0	gamma_cid13_p1	gamma_cid13_p2	gamma_cid13_p3	gamma_cid13_p4	gamma_cid13_p5	gamma_cid14_p0
0	-0.0368096960015049	0.05667174116031741	0.9203418199949391	0.3085816938045678	-0.2956363239235824	-0.3015185481066227	-0.3879492264334186	0.2499269421184897	0.2499269421184919	-0.1745328461046143	-0.1744456443155938	-0.0008036623358878681	0.000440766246889339	0	0	0	0	0	0	0	0	0	0	0	0	0	0.07209258905865315	-0.04315139913069097	-0.01983689857651785	-0.242411764248169	0.1893918887799537	-0.01838850972506783	0.002292300502265834	17.26473870910345	2.333991039969499	2.176778576758809	10.53865963764955	-621.5016440637994	-70.11515705139975	-23.19396082757301	-1.008543555416772	-2.054023274585812	-0.9293023558021259	9.346930219055716	-0.8406565321868478	3.33459842469752	-7.3179684737455	9.439259155314852	9.439259155315447	1.289121446932921	-0.08401446052681591	1.629180469591043	-0.3486790384521486	7.342011481160499e-10	1.527185566535694e-07	5.989699226703806e-08	-1.021572070137314e-08	1.184967277678623e-07	6.311863718084422e-09	4.010344930660501e-09
0.01	-0.03685648196179088	0.05657079118382227	0.9202963844268692	0.309037197777009	-0.2956785193134995	-0.3013510695675901	-0.3883134575608576	0.2503896057802403	0.2503896057802417	-0.1744720584004059	-0.1744463317733451	-0.0007238831313377902	0.0004225734839911285	-0.009325086501318464	-0.02003335494792661	-0.009051021617078136	0.09062089968158367	-0.008397167295330157	0.03334436047383269	-0.07232255669106188	0.09211432304793916	0.09211432304794002	0.0120936976680027	-0.0001296157692584576	0.01596625646227524	-0.003590252532687224	0.06742882939791389	-0.05184066152872622	-0.01935526190428379	-0.2400715308755477	0.1853190325364145	-0.00770950290445282	0.007177464038114786	16.25033878407647	-2.044011768129739	2.780773300023907	9.247897774602725	-624.3430738316333	-78.92466604132552	-23.19931163310924	-0.8896837445445835	-1.95449759522069	-0.8875645657785897	8.847679442378167	-0.8329938437059417	3.311651463580399	-7.110848947375115	9.034756682110515	9.034756682110235	1.159949662318838	0.0237513388610005	1.581914496916642	-0.356984659251548	-3.131528552553385e-08	1.500056587007128e-07	1.403025837588405e-07	1.987178390831888e-08	-2.360354985466496e-09	-4.596943182686671e-08	-5.585780195649625e-09
0.02	-0.03699555729649933	0.05627420645978311	0.9201615261424051	0.3103845126662019	-0.2958034357794697	-0.3008546881028487	-0.3893852041913244	0.2517608602329854	0.2517608602329856	-0.1742922425724021	-0.1744480780939924	-0.0004841281096907354	0.0003699209360511366	-0.01845787488485257	-0.03912694950879957	-0.01788454327887385	0.1783621833499088	-0.01654421521065349	0.0657805851418357	-0.1415031006056757	0.1817181581989608	0.1817181581989576	0.02380562475940068	-0.0002117725790619217	0.03199516341938587	-0.006891957008355986	0.06276506973717993	-0.06052992392676293	-0.01887362523204412	-0.2377312975029261	0.181246176292874	0.002969503916160173	0.01206262757396838	15.30890708521946	-6.433280124880627	3.384838422572873	7.845094062409225	-626.0930656438788	-87.64332384077785	-23.21503476937211	-0.9700839318599593	-1.866071197175027	-0.8858023647456418	8.771007016403994	-0.7906326561854865	3.152971263531588	-6.689565918455918	8.937161575931345	8.937161575930944	1.212767331611969	-0.07452266863580904	1.641710568558178	-0.290969427048439	-6.336477219918376e-08	1.472927607478562e-07	2.207081752506428e-07	4.99592885180109e-08	-1.232174377387952e-07	-9.825072737181783e-08	-1.518190532195975e-08
0.03	-0.03722487388328495	0.05579109084275791	0.9199391944192362	0.3125951980671177	-0.2960083413625588	-0.3000391519596997	-0.3911331919016909	0.2540156444011026	0.2540156444011029	-0.1739969967721903	-0.1744509260728758	-8.420773257797608e-05	0.0002857789068798521	-0.02733777884852877	-0.05736881726132945	-0.02656397653779776	0.2632993158310474	-0.02437829885265087	0.09716384967050674	-0.2076113732564892	0.2688132474899045	0.2688132474899003	0.03518289212684801	-0.0003484440816306633	0.04795563420491172	-0.009886862577205467	0.05609797185488086	-0.05414748893327628	-0.01809249917604619	-0.2323678420371307	0.1768577553316998	0.0009476819503054294	0.01803438909802699	13.77250155761236	-5.359058861267668	3.296812624662054	7.846726686728362	-627.6714194485392	-84.52407993294558	-23.24045370665307	-0.8368011008535664	-1.784130955480696	-0.8563652156984713	8.283719060145009	-0.7710567257106197	3.10655796694979	-6.498997706814404	8.531871490616524	8.531871490616702	1.091156693034697	0.01820114300116225	1.568223923289646	-0.2963617075690835	-8.584903482619486e-08	1.245777238751649e-07	2.807517063855793e-07	6.984438839420967e-08	-2.163283333446815e-07	-1.403628950320699e-07	-2.399024706004517e-08
